<svg xmlns="http://www.w3.org/2000/svg" width="199" height="140" viewBox="0 0 199 140">
  <metadata><?xpacket begin="﻿" id="W5M0MpCehiHzreSzNTczkc9d"?>
<x:xmpmeta xmlns:x="adobe:ns:meta/" x:xmptk="Adobe XMP Core 5.6-c138 79.159824, 2016/09/14-01:09:01        ">
   <rdf:RDF xmlns:rdf="http://www.w3.org/1999/02/22-rdf-syntax-ns#">
      <rdf:Description rdf:about=""/>
   </rdf:RDF>
</x:xmpmeta>
                                                                                                    
                                                                                                    
                                                                                                    
                                                                                                    
                                                                                                    
                                                                                                    
                                                                                                    
                                                                                                    
                                                                                                    
                                                                                                    
                                                                                                    
                                                                                                    
                                                                                                    
                                                                                                    
                                                                                                    
                                                                                                    
                                                                                                    
                                                                                                    
                                                                                                    
                                                                                                    
                           
<?xpacket end="w"?></metadata>
<defs>
    <style>
      .cls-1 {
        fill: #059feb;
        fill-rule: evenodd;
      }
    </style>
  </defs>
  <path id="Forma_1" data-name="Forma 1" class="cls-1" d="M346.776,3172.88h-3.653V3063.06a10.09,10.09,0,0,0-10.1-10.06H167.977a10.09,10.09,0,0,0-10.1,10.06v109.82h-3.654a3.212,3.212,0,0,0-3.223,3.21v6.85A10.09,10.09,0,0,0,161.1,3193H339.9a10.09,10.09,0,0,0,10.1-10.06v-6.85A3.212,3.212,0,0,0,346.776,3172.88ZM164.324,3063.06a3.649,3.649,0,0,1,3.653-3.64H333.023a3.649,3.649,0,0,1,3.653,3.64v109.82H164.324V3063.06Zm179.229,119.88a3.656,3.656,0,0,1-3.654,3.64H161.1a3.655,3.655,0,0,1-3.653-3.64v-3.64h76.086c0,0.07-.01.14-0.01,0.21a3.212,3.212,0,0,0,3.223,3.21h27.508a3.212,3.212,0,0,0,3.223-3.21c0-.07-0.006-0.14-0.01-0.21h76.086v3.64ZM326.146,3066.7H174.854a3.218,3.218,0,0,0-3.223,3.21v92.48a3.218,3.218,0,0,0,3.223,3.21H326.146a3.218,3.218,0,0,0,3.223-3.21v-92.48A3.218,3.218,0,0,0,326.146,3066.7Zm-148.068,6.42h76.075v86.06h-7.306v-20.77a13.33,13.33,0,0,0-2.136-7.25,3.2,3.2,0,0,0,1.325-5.15c-3.855-4.34-6.066-12.3-6.066-21.85a23.855,23.855,0,0,0-47.709,0c0,9.55-2.211,17.51-6.066,21.85a3.2,3.2,0,0,0,1.325,5.15,13.33,13.33,0,0,0-2.136,7.25v20.77h-7.306v-86.06Zm52.006,31.04a13.974,13.974,0,0,1-27.855,1.56c7.444-1.68,16.8-4.79,24.492-10.51A13.68,13.68,0,0,1,230.084,3104.16Zm-18.8,19.76a20.389,20.389,0,0,0,9.657,0,18.3,18.3,0,0,0,9.062,5.68,13.974,13.974,0,0,1-27.781,0A18.3,18.3,0,0,0,211.287,3123.92Zm15.993-2.75a20.416,20.416,0,0,0,6.943-7.63,39.844,39.844,0,0,0,3.308,11.11C233.957,3124.21,229.883,3123.21,227.28,3121.17Zm-28.01-21.38a17.425,17.425,0,0,1,25.083-10.9C216.473,3095.41,205.624,3098.47,199.27,3099.79Zm-1.262,13.75a20.425,20.425,0,0,0,6.943,7.63c-2.6,2.04-6.678,3.04-10.251,3.48A39.844,39.844,0,0,0,198.008,3113.54Zm-6.177,24.87a7.075,7.075,0,0,1,4.234-6.46,20.428,20.428,0,0,0,40.1,0,7.075,7.075,0,0,1,4.234,6.46v20.77H191.831v-20.77Zm131.091,20.77H260.6v-86.06h62.322v86.06Zm-51.791-65.51h3.653v0.22a3.224,3.224,0,0,0,6.447,0v-0.22h31.161a3.21,3.21,0,1,0,0-6.42H281.231v-0.21a3.224,3.224,0,0,0-6.447,0v0.21h-3.653A3.21,3.21,0,1,0,271.131,3093.67Zm0,17.13h31.16v0.21a3.224,3.224,0,0,0,6.448,0v-0.21h3.653a3.21,3.21,0,1,0,0-6.42h-3.653v-0.22a3.224,3.224,0,0,0-6.448,0v0.22h-31.16A3.21,3.21,0,1,0,271.131,3110.8Zm0,17.12h20.845v0.22a3.224,3.224,0,0,0,6.447,0v-0.22h13.969a3.21,3.21,0,1,0,0-6.42H298.423v-0.21a3.224,3.224,0,0,0-6.447,0v0.21H271.131A3.21,3.21,0,1,0,271.131,3127.92Zm41.261,10.71H288.108v-0.22a3.224,3.224,0,0,0-6.447,0v0.22h-10.53a3.21,3.21,0,1,0,0,6.42h10.53v0.21a3.224,3.224,0,0,0,6.447,0v-0.21h24.284A3.21,3.21,0,1,0,312.392,3138.63Z" transform="translate(-151 -3053)"/>
</svg>
