<!DOCTYPE svg PUBLIC "-//W3C//DTD SVG 20010904//EN" "http://www.w3.org/TR/2001/REC-SVG-20010904/DTD/svg10.dtd">
<svg version="1.0" xmlns="http://www.w3.org/2000/svg" width="604px" height="391px" viewBox="0 0 6040 3910" preserveAspectRatio="xMidYMid meet">
<g id="layer1" fill="#d8d8d8" stroke="none">
 <path d="M284 3891 c-27 -9 -64 -26 -80 -38 -44 -32 -117 -112 -147 -163 -59 -102 -57 -12 -57 -1932 l0 -1758 230 0 230 0 0 1709 c0 940 3 1716 6 1725 6 15 240 16 2554 16 2314 0 2548 -1 2554 -16 3 -9 6 -785 6 -1725 l0 -1709 230 0 230 0 0 1758 c-1 1908 2 1821 -56 1920 -33 56 -124 154 -170 182 -84 53 79 50 -2804 49 -2507 0 -2678 -1 -2726 -18z"/>
 <path d="M3749 2590 l-275 -269 -78 58 c-196 147 -425 221 -684 221 -143 0 -249 -16 -370 -57 -190 -63 -366 -180 -507 -338 l-66 -74 88 -92 c111 -116 218 -196 347 -259 398 -195 880 -146 1216 124 l55 44 271 -270 c160 -159 276 -268 283 -264 13 8 16 1432 4 1439 -5 3 -132 -116 -284 -263z m-799 -273 c119 -36 172 -60 268 -124 81 -54 83 -56 66 -75 -27 -29 -153 -105 -223 -133 -173 -71 -382 -88 -556 -46 -98 24 -261 99 -338 156 l-48 36 45 35 c54 41 174 107 236 130 167 60 388 69 550 21z m840 -184 l0 -137 -70 69 -70 69 67 68 c37 38 69 68 70 68 2 0 3 -62 3 -137z"/>
 <path d="M1110 1028 c-46 -18 -84 -50 -242 -206 -104 -102 -188 -190 -188 -196 0 -6 38 -49 85 -96 l85 -84 179 178 180 179 42 -6 c38 -5 56 -20 203 -166 196 -195 232 -216 366 -216 134 0 170 21 366 216 146 145 165 161 203 166 l41 6 169 -167 c204 -200 237 -220 371 -221 132 0 170 22 360 209 85 85 165 159 177 165 53 27 67 18 242 -153 188 -182 234 -212 342 -222 69 -7 156 12 208 43 14 9 98 87 186 174 97 96 171 160 188 164 53 14 80 -4 235 -158 l152 -152 88 88 87 88 -175 173 c-156 154 -182 176 -235 196 -80 29 -207 25 -275 -9 -26 -14 -113 -90 -210 -186 -105 -103 -174 -164 -190 -167 -55 -8 -84 12 -249 175 -147 145 -173 167 -226 186 -50 19 -75 22 -145 19 -126 -6 -163 -29 -350 -214 -85 -84 -167 -157 -182 -163 -20 -7 -36 -7 -55 0 -15 6 -102 83 -193 173 -145 143 -172 165 -225 185 -50 19 -74 22 -145 19 -128 -7 -157 -24 -345 -209 -88 -87 -172 -162 -187 -168 -20 -7 -36 -7 -55 0 -16 6 -100 81 -188 168 -190 187 -217 203 -350 208 -74 3 -100 -1 -145 -19z"/>
 </g>

</svg>