<!DOCTYPE svg PUBLIC "-//W3C//DTD SVG 20010904//EN" "http://www.w3.org/TR/2001/REC-SVG-20010904/DTD/svg10.dtd">
<svg version="1.0" xmlns="http://www.w3.org/2000/svg" width="493px" height="391px" viewBox="0 0 4930 3910" preserveAspectRatio="xMidYMid meet">
<g id="layer1" fill="#d8d8d8" stroke="none">
 <path d="M0 3696 c0 -165 3 -222 15 -249 19 -47 86 -102 149 -124 48 -17 166 -18 2261 -18 1852 0 2218 2 2258 14 56 16 130 78 157 132 18 34 20 59 20 249 l0 210 -135 0 -135 0 0 -170 0 -170 -2165 0 -2165 0 0 170 0 170 -130 0 -130 0 0 -214z"/>
 <path d="M190 3229 c-50 -22 -124 -89 -147 -133 -44 -84 -43 -38 -43 -1608 l0 -1488 170 0 170 0 0 230 0 230 2125 0 2125 0 0 -230 0 -230 170 0 170 0 0 1493 c0 1622 2 1555 -56 1638 -14 21 -42 50 -60 64 -77 59 94 55 -2341 55 -2228 0 -2238 -1 -2283 -21z m4400 -464 l0 -145 -2125 0 -2125 0 0 145 0 145 2125 0 2125 0 0 -145z m0 -280 l0 -25 -2125 0 -2125 0 0 25 0 25 2125 0 2125 0 0 -25z m-3880 -1020 l0 -815 -185 0 -185 0 0 815 0 815 185 0 185 0 0 -815z m650 0 l0 -815 -230 0 -230 0 0 815 0 815 230 0 230 0 0 -815z m650 0 l0 -815 -230 0 -230 0 0 815 0 815 230 0 230 0 0 -815z m640 0 l0 -815 -225 0 -225 0 0 815 0 815 225 0 225 0 0 -815z m650 0 l0 -815 -230 0 -230 0 0 815 0 815 230 0 230 0 0 -815z m650 0 l0 -815 -230 0 -230 0 0 815 0 815 230 0 230 0 0 -815z m640 0 l0 -815 -225 0 -225 0 0 815 0 815 225 0 225 0 0 -815z"/>
 </g>

</svg>