<!DOCTYPE svg PUBLIC "-//W3C//DTD SVG 20010904//EN" "http://www.w3.org/TR/2001/REC-SVG-20010904/DTD/svg10.dtd">
<svg version="1.0" xmlns="http://www.w3.org/2000/svg" width="547px" height="420px" viewBox="0 0 5470 4200" preserveAspectRatio="xMidYMid meet">
<g id="layer1" fill="#d8d8d8" stroke="none">
 <path d="M340 4131 l0 -69 -54 -6 c-78 -10 -164 -55 -213 -110 -79 -90 -73 62 -73 -1846 0 -1895 -5 -1755 67 -1840 78 -91 163 -120 350 -120 l123 0 0 -70 0 -70 570 0 570 0 0 70 0 70 260 0 260 0 0 -70 0 -70 570 0 570 0 0 70 0 70 265 0 265 0 0 -70 0 -70 570 0 570 0 0 69 0 68 108 5 c135 6 210 35 277 110 81 91 75 -66 75 1848 0 1902 5 1757 -70 1842 -21 24 -54 52 -74 63 l-36 20 0 87 0 88 -375 0 -375 0 0 -70 0 -70 -1725 0 -1725 0 0 70 0 70 -375 0 -375 0 0 -69z m2820 -1676 l0 -1255 -1415 0 -1415 0 0 1255 0 1255 1415 0 1415 0 0 -1255z m1980 0 l0 -1255 -900 0 -900 0 0 1255 0 1255 900 0 900 0 0 -1255z m0 -1700 l0 -265 -2405 0 -2405 0 0 265 0 265 2405 0 2405 0 0 -265z"/>
 <path d="M995 3103 c-61 -14 -93 -30 -133 -67 -85 -78 -82 -50 -82 -657 l0 -535 26 -52 c29 -58 69 -96 131 -124 40 -18 80 -18 860 -16 918 3 843 -3 923 79 71 74 71 70 68 665 -3 523 -3 529 -25 570 -12 22 -39 56 -59 74 -79 69 -25 65 -899 67 -434 0 -799 -1 -810 -4z m1568 -194 c12 -7 25 -17 29 -23 4 -6 8 -235 8 -509 0 -484 -1 -498 -20 -517 -20 -20 -33 -20 -797 -20 -708 0 -778 1 -795 17 -17 15 -18 44 -18 518 0 518 0 524 40 538 8 3 356 6 773 6 553 1 764 -2 780 -10z"/>
 <path d="M1312 2787 l-62 -62 365 -365 365 -365 65 65 65 65 -362 362 c-200 200 -365 363 -368 363 -3 0 -34 -28 -68 -63z"/>
 <path d="M1747 2792 c-31 -32 -57 -62 -57 -67 0 -6 162 -172 360 -370 l360 -360 65 65 65 65 -362 362 c-200 200 -365 363 -368 363 -3 0 -31 -26 -63 -58z"/>
 <path d="M1136 860 c-58 -18 -96 -73 -96 -140 0 -33 7 -48 38 -81 31 -33 46 -42 83 -46 84 -10 150 48 151 133 2 90 -90 161 -176 134z"/>
 <path d="M1932 863 c-37 -7 -90 -65 -97 -106 -10 -51 0 -82 38 -124 102 -110 286 15 222 151 -29 60 -96 93 -163 79z"/>
 <path d="M2720 859 c-101 -41 -127 -168 -49 -233 60 -51 132 -47 187 8 61 61 51 164 -20 210 -32 20 -88 27 -118 15z"/>
 <path d="M3514 859 c-18 -5 -46 -25 -63 -44 -54 -62 -39 -160 32 -204 95 -58 207 7 207 121 0 54 -33 102 -87 124 -36 16 -45 16 -89 3z"/>
 <path d="M4306 860 c-141 -44 -117 -254 31 -267 83 -7 145 49 147 132 2 90 -93 162 -178 135z"/>
 </g>

</svg>