<!DOCTYPE svg PUBLIC "-//W3C//DTD SVG 20010904//EN" "http://www.w3.org/TR/2001/REC-SVG-20010904/DTD/svg10.dtd">
<svg version="1.0" xmlns="http://www.w3.org/2000/svg" width="633px" height="537px" viewBox="0 0 6330 5370" preserveAspectRatio="xMidYMid meet">
<g id="layer1" fill="#d8d8d8" stroke="none">
 <path d="M0 4127 c0 -1421 -8 -1300 90 -1391 70 -64 133 -91 252 -106 111 -14 5635 -14 5731 0 81 12 134 37 187 90 74 74 70 -6 70 1397 l0 1253 -190 0 -190 0 0 -720 0 -720 -2785 0 -2785 0 0 720 0 720 -190 0 -190 0 0 -1243z m5950 -802 l0 -305 -2785 0 -2785 0 0 305 0 305 2785 0 2785 0 0 -305z"/>
 <path d="M447 2553 c-4 -3 -7 -579 -7 -1280 l0 -1273 795 0 795 0 -2 1278 -3 1277 -786 3 c-432 1 -789 -1 -792 -5z m1283 -1278 l0 -985 -490 0 -490 0 0 985 0 985 490 0 490 0 0 -985z"/>
 <path d="M1175 1701 c-52 -31 -68 -58 -72 -114 -5 -61 18 -105 69 -137 93 -56 218 15 218 125 0 108 -125 182 -215 126z"/>
 <path d="M814 636 c-3 -7 -4 -33 -2 -57 l3 -44 425 0 425 0 0 55 0 55 -423 3 c-354 2 -423 0 -428 -12z"/>
 <path d="M3244 2547 c-2 -7 -3 -74 -2 -148 l3 -134 975 0 975 0 0 145 0 145 -973 3 c-793 2 -974 0 -978 -11z"/>
 <path d="M2287 2193 c-4 -3 -7 -498 -7 -1100 l0 -1093 1895 0 1895 0 -2 1097 -3 1098 -1886 3 c-1037 1 -1889 -1 -1892 -5z m3473 -1098 l0 -805 -1590 0 -1590 0 0 805 0 805 1590 0 1590 0 0 -805z"/>
 </g>

</svg>