<!DOCTYPE svg PUBLIC "-//W3C//DTD SVG 20010904//EN" "http://www.w3.org/TR/2001/REC-SVG-20010904/DTD/svg10.dtd">
<svg version="1.0" xmlns="http://www.w3.org/2000/svg" width="511px" height="549px" viewBox="0 0 5110 5490" preserveAspectRatio="xMidYMid meet">
<g id="layer1" fill="#d8d8d8" stroke="none">
 <path d="M0 2856 c0 -2348 2 -2638 15 -2677 17 -48 61 -99 113 -131 81 -50 -28 -48 2458 -48 2136 0 2324 1 2369 17 65 22 126 85 143 146 9 37 12 607 12 2687 l0 2640 -175 0 -175 0 0 -1090 0 -1090 -1325 0 -1325 0 -2 1073 -3 1072 -135 0 -135 0 -3 -227 -2 -228 -740 0 -740 0 0 245 0 245 -175 0 -175 0 0 -2634z m1830 1574 l0 -280 -740 0 -740 0 0 280 0 280 740 0 740 0 0 -280z m0 -840 l0 -280 -740 0 -740 0 0 280 0 280 740 0 740 0 0 -280z m0 -1900 l0 -1340 -740 0 -740 0 0 1340 0 1340 740 0 740 0 0 -1340z m2930 380 l0 -960 -1325 0 -1325 0 0 960 0 960 1325 0 1325 0 0 -960z m0 -1395 l0 -325 -1325 0 -1325 0 0 325 0 325 1325 0 1325 0 0 -325z"/>
 <path d="M1039 4511 c-35 -34 -39 -44 -39 -87 0 -61 25 -105 73 -127 43 -21 67 -21 111 -3 64 27 98 107 73 168 -24 56 -70 88 -129 88 -45 0 -54 -4 -89 -39z"/>
 <path d="M1064 3691 c-48 -29 -64 -59 -64 -119 0 -50 3 -58 39 -93 35 -35 44 -39 89 -39 43 0 57 5 86 30 45 40 61 86 47 138 -24 86 -123 128 -197 83z"/>
 <path d="M1393 1829 c-43 -27 -67 -81 -60 -133 8 -60 70 -116 129 -116 107 0 173 117 118 207 -37 62 -125 82 -187 42z"/>
 </g>

</svg>