<!DOCTYPE svg PUBLIC "-//W3C//DTD SVG 20010904//EN" "http://www.w3.org/TR/2001/REC-SVG-20010904/DTD/svg10.dtd">
<svg version="1.0" xmlns="http://www.w3.org/2000/svg" width="1014px" height="1600px" viewBox="0 0 10140 16000" preserveAspectRatio="xMidYMid meet">
<g id="layer1" fill="#aa7918" stroke="none">
 <path d="M4245 15985 c-240 -20 -484 -79 -728 -176 -667 -266 -1173 -800 -1287 -1361 -35 -169 -23 -418 32 -648 93 -392 260 -718 493 -959 99 -102 222 -205 300 -251 22 -12 56 -32 75 -43 88 -50 238 -104 370 -133 107 -24 483 -27 595 -6 213 41 361 109 470 217 123 122 173 254 161 430 -7 110 -24 176 -66 258 -84 161 -235 276 -470 356 -36 13 -96 38 -135 58 -209 104 -314 273 -315 507 0 70 4 87 36 153 108 226 391 344 748 312 169 -15 270 -41 390 -101 287 -143 507 -473 668 -998 37 -122 107 -413 129 -537 5 -29 14 -79 19 -110 6 -32 15 -89 21 -128 6 -38 15 -99 20 -135 15 -96 50 -407 63 -547 l6 -63 -38 0 c-33 0 -132 -10 -412 -41 -180 -19 -256 -28 -620 -69 -201 -23 -401 -45 -445 -50 -44 -5 -120 -13 -170 -19 -49 -5 -135 -15 -190 -21 -55 -6 -138 -15 -185 -21 -47 -5 -132 -14 -190 -20 -58 -6 -108 -12 -111 -12 -4 -1 -32 33 -63 76 -121 169 -245 288 -422 407 -299 201 -640 313 -1071 350 -652 55 -1164 -120 -1522 -523 -199 -224 -349 -552 -386 -847 -45 -352 7 -582 184 -817 105 -139 210 -226 356 -294 146 -69 220 -82 446 -81 321 1 550 44 724 135 86 45 221 183 262 268 55 112 76 208 77 349 1 147 -10 187 -86 301 -49 74 -112 116 -186 124 -143 15 -154 18 -199 48 -29 20 -56 49 -70 77 -21 39 -23 56 -20 132 3 74 8 95 36 152 62 121 208 232 349 266 30 7 93 12 140 12 136 0 238 -46 347 -157 72 -73 245 -307 293 -395 209 -384 353 -1035 422 -1900 28 -361 50 -929 50 -1303 0 -199 -21 -673 -35 -817 -3 -30 -10 -100 -16 -155 -51 -501 -170 -1022 -334 -1460 -103 -278 -255 -580 -399 -795 -360 -540 -814 -906 -1271 -1025 -73 -19 -115 -25 -218 -34 -51 -4 -108 -15 -127 -24 -87 -42 -149 -119 -176 -219 -43 -162 14 -241 183 -257 175 -17 539 14 748 64 33 7 110 25 170 39 127 30 334 84 485 127 169 47 243 69 275 79 17 5 127 36 245 70 118 34 229 65 245 71 38 12 284 81 390 109 445 120 764 180 952 180 51 0 93 -2 93 -4 0 -2 -17 -37 -39 -78 -21 -40 -92 -179 -158 -308 -386 -763 -524 -1173 -564 -1676 -39 -499 153 -1033 525 -1458 180 -204 481 -417 716 -504 197 -73 312 -101 485 -117 287 -28 697 -12 882 34 308 76 609 234 818 429 296 276 469 573 567 972 20 84 17 405 -5 497 -45 188 -117 359 -207 494 -278 413 -732 663 -1152 635 -261 -18 -467 -106 -657 -282 l-71 -66 16 44 c39 108 117 328 134 378 10 30 60 174 110 320 50 146 119 347 152 447 41 122 66 184 77 187 82 26 631 55 1026 56 499 0 758 33 1065 136 626 209 1071 675 1222 1279 19 78 22 117 22 295 0 209 -9 282 -50 407 -43 129 -128 273 -226 379 -54 59 -201 175 -256 203 -67 34 -82 54 -82 109 0 86 38 125 223 226 137 75 296 196 436 331 370 357 618 824 726 1369 68 345 75 985 14 1291 -137 684 -565 1229 -1228 1560 -166 83 -204 100 -344 151 -250 93 -522 159 -832 205 -66 10 -385 38 -431 39 l-22 0 -5 598 c-5 588 -12 730 -47 932 -5 30 -14 87 -20 125 -27 169 -80 385 -140 565 -135 409 -349 765 -609 1013 -185 176 -340 284 -556 388 -277 133 -519 199 -825 224 -208 17 -586 17 -795 0z m1656 -4995 c11 -156 10 -1451 -1 -1630 -28 -467 -55 -754 -106 -1105 -22 -156 -32 -222 -43 -285 -33 -189 -52 -295 -54 -295 -1 -1 -78 2 -172 6 -411 18 -607 28 -611 32 -3 2 -18 85 -35 183 -16 98 -34 203 -39 232 -6 28 -14 76 -19 105 -92 508 -306 1291 -488 1777 -108 290 -211 530 -325 760 -37 74 -87 172 -113 218 l-45 82 37 1 c118 5 1287 15 1618 15 l390 -1 6 -95z m1351 -121 c106 -54 303 -224 434 -374 276 -317 460 -670 549 -1050 109 -473 63 -1030 -117 -1390 -115 -229 -295 -386 -478 -416 -72 -12 -770 -2 -770 11 0 4 6 45 14 91 8 46 19 120 26 164 6 44 15 103 20 130 5 28 13 86 20 130 6 44 15 107 20 140 10 68 24 173 60 463 5 42 14 120 19 172 6 52 15 136 21 185 35 325 77 835 100 1220 5 94 15 244 20 335 6 91 10 176 10 188 0 27 1 27 52 1z m-1852 -4343 c0 -8 -122 -365 -149 -436 -52 -135 -182 -464 -201 -505 -10 -22 -32 -74 -50 -115 -33 -77 -59 -134 -125 -277 l-38 -83 -399 0 c-317 0 -398 3 -392 13 5 6 47 64 94 127 219 293 386 611 498 946 28 82 58 186 69 232 l18 82 75 1 c41 1 143 5 225 9 182 8 375 11 375 6z m1380 -63 c278 -81 438 -179 536 -330 60 -94 79 -170 79 -318 0 -123 -2 -134 -33 -211 -40 -100 -79 -159 -160 -245 -104 -111 -272 -213 -390 -238 -30 -6 -155 -11 -293 -11 l-239 0 6 28 c3 15 10 38 15 52 39 111 221 801 309 1172 l32 138 27 -6 c14 -3 64 -17 111 -31z"/>
 </g>

</svg>