<!DOCTYPE svg PUBLIC "-//W3C//DTD SVG 20010904//EN" "http://www.w3.org/TR/2001/REC-SVG-20010904/DTD/svg10.dtd">
<svg version="1.0" xmlns="http://www.w3.org/2000/svg" width="548px" height="548px" viewBox="0 0 5480 5480" preserveAspectRatio="xMidYMid meet">
<g id="layer1" fill="#343e5c" stroke="none">
 <path d="M4800 5466 c-141 -26 -141 -26 -777 -659 l-581 -580 -154 76 c-456 226 -941 296 -1436 207 -890 -160 -1610 -858 -1805 -1750 -64 -289 -56 -768 17 -1050 102 -396 290 -732 575 -1024 311 -318 656 -518 1084 -627 304 -78 807 -75 1120 5 887 228 1542 958 1683 1876 22 140 25 480 6 615 -37 259 -108 489 -223 724 l-81 163 579 582 c438 439 588 595 612 638 77 138 80 407 5 537 -62 106 -175 208 -269 244 -94 36 -235 45 -355 23z m-2250 -1836 c273 -56 502 -181 705 -384 199 -200 313 -411 377 -697 32 -147 32 -406 0 -556 -107 -496 -453 -883 -926 -1038 -146 -48 -277 -68 -436 -68 -366 1 -698 136 -962 391 -210 203 -353 475 -403 766 -20 117 -19 336 1 457 104 610 577 1062 1204 1149 104 14 321 5 440 -20z"/>
 </g>

</svg>