<!DOCTYPE svg PUBLIC "-//W3C//DTD SVG 20010904//EN" "http://www.w3.org/TR/2001/REC-SVG-20010904/DTD/svg10.dtd">
<svg version="1.0" xmlns="http://www.w3.org/2000/svg" width="567px" height="536px" viewBox="0 0 5670 5360" preserveAspectRatio="xMidYMid meet">
<g id="layer1" fill="#343e5c" stroke="none">
 <path d="M1715 5346 c-33 -7 -92 -29 -130 -49 -245 -130 -380 -405 -331 -677 45 -249 252 -463 501 -515 240 -50 494 44 641 238 99 131 140 265 130 427 -10 177 -74 311 -205 433 -80 74 -170 123 -260 142 -85 18 -259 18 -346 1z"/>
 <path d="M4222 5344 c-99 -21 -177 -68 -272 -164 -97 -97 -150 -190 -175 -306 -97 -458 305 -864 760 -769 228 48 430 239 491 465 27 102 23 254 -10 356 -67 208 -254 383 -450 421 -89 16 -261 15 -344 -3z"/>
 <path d="M1156 3822 c-3 -5 -87 -697 -186 -1538 -99 -841 -183 -1548 -186 -1571 l-6 -42 -282 -3 -281 -3 -54 -30 c-66 -37 -125 -102 -145 -162 -20 -60 -21 -202 -1 -268 20 -66 56 -115 113 -156 l47 -34 589 -8 c324 -4 592 -4 596 0 4 5 24 152 44 328 21 176 38 321 40 322 1 1 33 -2 71 -8 44 -6 795 -8 2000 -7 l1930 3 52 24 c60 27 125 92 142 142 14 45 31 238 31 367 0 128 -3 138 -179 663 -115 346 -151 441 -211 559 -146 287 -296 429 -486 460 -36 6 -650 10 -1576 10 l-1517 0 5 33 c3 17 11 79 17 137 l12 105 1968 3 c1681 2 1967 4 1967 16 0 8 -71 155 -157 328 l-158 313 -2060 6 c-1133 3 -2076 9 -2096 14 -21 4 -39 3 -43 -3z"/>
 </g>

</svg>