<!DOCTYPE svg PUBLIC "-//W3C//DTD SVG 20010904//EN" "http://www.w3.org/TR/2001/REC-SVG-20010904/DTD/svg10.dtd">
<svg version="1.0" xmlns="http://www.w3.org/2000/svg" width="781px" height="211px" viewBox="0 0 7810 2110" preserveAspectRatio="xMidYMid meet">
<g id="layer1" fill="#3a405b" stroke="none">
 <path d="M85 2099 c-73 -18 -108 -75 -66 -111 56 -47 111 -189 177 -451 44 -176 258 -990 308 -1170 l24 -87 -41 32 c-23 18 -71 61 -108 95 l-66 62 -30 -32 c-42 -44 -54 -71 -56 -122 -2 -51 12 -70 97 -127 134 -92 282 -151 435 -174 122 -18 330 -18 398 0 108 29 210 135 255 264 19 55 23 88 23 187 0 134 -16 199 -81 329 -96 190 -257 344 -468 446 -109 53 -181 74 -314 94 l-86 12 -23 109 c-89 429 -142 583 -216 629 -30 19 -113 26 -162 15z m499 -915 c195 -50 397 -197 495 -358 147 -244 145 -545 -5 -644 -83 -56 -203 -66 -316 -27 -44 15 -46 18 -36 39 8 19 -3 79 -55 297 -103 428 -162 709 -150 709 3 0 33 -7 67 -16z"/>
 <path d="M2730 1779 c-100 -40 -162 -166 -130 -265 7 -22 53 -114 102 -206 65 -120 89 -174 86 -195 -3 -27 -5 -28 -78 -34 -41 -3 -80 -7 -87 -10 -7 -2 -87 120 -196 299 -101 167 -196 319 -211 338 -41 52 -106 44 -106 -13 0 -13 52 -127 115 -253 63 -126 115 -232 115 -234 0 -3 -36 19 -79 48 -44 29 -104 64 -135 77 -54 23 -56 26 -76 85 -67 198 -220 334 -385 342 -94 5 -147 -11 -200 -59 -60 -56 -86 -121 -96 -249 -17 -211 28 -351 186 -578 44 -63 203 -114 286 -92 146 39 245 166 256 331 3 43 9 79 12 79 22 -1 238 -132 310 -188 23 -18 23 -20 7 -43 -37 -54 -3 -171 80 -267 47 -56 87 -76 136 -69 72 10 112 68 111 163 0 35 -7 73 -17 92 l-17 32 92 0 91 0 38 38 c42 42 61 96 62 177 1 59 -11 84 -94 208 -32 48 -70 108 -83 134 -28 52 -33 114 -10 133 25 21 92 5 151 -35 74 -51 207 -193 296 -317 l75 -103 37 -190 c20 -104 44 -226 54 -270 l19 -80 -131 0 c-116 -1 -138 -3 -191 -25 -74 -31 -83 -59 -37 -111 l30 -33 148 2 c82 1 166 -2 187 -6 l38 -7 38 -115 c62 -191 80 -212 181 -214 97 -2 109 28 87 221 l-8 71 68 7 c93 9 223 33 271 49 l40 14 12 -61 c7 -34 14 -102 15 -150 1 -49 6 -92 11 -97 17 -16 118 -40 169 -40 68 0 85 18 85 91 0 31 -17 120 -39 204 -21 83 -95 373 -165 645 -180 702 -172 672 -198 694 -45 36 -136 6 -169 -56 -6 -12 -3 -43 11 -97 11 -44 20 -84 20 -89 0 -6 -49 38 -108 97 -113 112 -204 171 -264 171 -69 0 -122 -23 -175 -75 -59 -60 -83 -122 -83 -219 l0 -61 -37 45 c-20 25 -84 93 -142 151 -127 126 -218 179 -305 178 -28 0 -62 -5 -76 -10z m-1010 -199 c37 -19 79 -69 113 -136 l16 -32 -68 -4 c-79 -4 -134 -35 -182 -101 -35 -49 -42 -38 -47 81 -8 179 54 250 168 192z m1907 -11 c93 -45 353 -322 372 -396 43 -167 132 -565 128 -569 -18 -19 -315 -50 -360 -39 -20 5 -28 19 -45 84 -25 92 -130 378 -213 579 -50 120 -59 152 -59 202 0 135 71 190 177 139z m-1721 -365 c11 -75 0 -184 -25 -231 -18 -37 -26 -43 -52 -43 -39 0 -90 24 -120 56 -20 21 -23 34 -22 87 1 34 10 79 19 99 21 47 80 78 146 78 l47 0 7 -46z"/>
 <path d="M6025 1756 c-48 -22 -93 -76 -104 -126 -12 -52 -3 -100 53 -302 47 -170 63 -279 47 -314 -10 -23 -16 -26 -42 -20 -62 12 -135 81 -234 221 -39 55 -46 76 -88 254 -28 119 -53 201 -64 213 -25 28 -104 66 -150 74 -67 10 -71 -5 -35 -149 l31 -122 -26 30 c-163 193 -212 228 -319 229 -48 1 -69 -4 -91 -20 -34 -24 -63 -80 -70 -134 l-6 -40 -52 53 c-88 89 -213 147 -316 147 -67 0 -137 -67 -160 -154 -20 -72 -6 -218 30 -326 47 -140 109 -238 226 -356 81 -82 115 -108 177 -139 66 -32 84 -37 126 -33 122 12 185 93 147 190 -5 14 0 17 32 20 37 3 38 4 41 43 2 22 -18 136 -43 253 -60 285 -59 342 7 342 26 0 45 -14 112 -82 45 -46 120 -132 167 -193 l86 -110 37 -160 c27 -121 42 -165 59 -182 44 -44 154 -54 202 -19 17 12 17 15 1 61 -9 27 -16 50 -16 53 0 2 28 -22 62 -54 101 -93 226 -136 295 -101 71 37 113 121 113 225 0 41 -43 227 -90 388 -17 56 -30 118 -30 138 0 33 2 36 28 36 43 0 113 -52 211 -158 89 -94 90 -96 126 -206 44 -138 99 -231 186 -319 91 -91 176 -132 274 -132 83 0 120 21 166 93 18 29 30 40 33 31 3 -8 19 -72 36 -144 46 -196 161 -608 174 -624 19 -24 89 -51 133 -51 85 0 112 80 93 280 -22 229 -142 552 -304 820 -58 96 -65 119 -86 266 -12 90 -4 126 30 144 51 28 195 -92 407 -338 90 -104 120 -132 137 -130 33 5 34 67 1 123 -40 70 -194 253 -286 340 -138 132 -250 195 -323 181 -71 -14 -146 -111 -146 -191 l0 -38 -52 50 c-140 131 -272 181 -371 139 -44 -18 -100 -85 -117 -138 -8 -24 -15 -47 -18 -51 -2 -4 -45 32 -96 80 -113 109 -191 153 -267 153 -30 -1 -67 -7 -84 -14z m844 -243 c30 -21 88 -77 130 -126 70 -81 77 -93 88 -154 12 -64 12 -66 -11 -84 -20 -15 -24 -30 -28 -91 -17 -242 -171 -199 -316 87 -95 190 -96 392 -1 416 35 8 77 -6 138 -48z m-2092 -9 c67 -43 128 -121 148 -187 18 -62 67 -289 62 -293 -1 -2 -20 1 -42 6 -21 5 -42 7 -46 4 -4 -2 0 -27 9 -54 21 -66 8 -82 -41 -51 -111 68 -247 351 -247 513 0 114 47 133 157 62z"/>
 </g>

</svg>